<?xml version="1.0" encoding="UTF-8" standalone="no"?>
<svg
   xmlns:dc="http://purl.org/dc/elements/1.1/"
   xmlns:cc="http://creativecommons.org/ns#"
   xmlns:rdf="http://www.w3.org/1999/02/22-rdf-syntax-ns#"
   xmlns:svg="http://www.w3.org/2000/svg"
   xmlns="http://www.w3.org/2000/svg"
   xmlns:sodipodi="http://sodipodi.sourceforge.net/DTD/sodipodi-0.dtd"
   xmlns:inkscape="http://www.inkscape.org/namespaces/inkscape"
   inkscape:version="1.0 (4035a4f, 2020-05-01)"
   sodipodi:docname="chic_dessert_right.svg"
   id="svg973"
   preserveAspectRatio="xMidYMid meet"
   viewBox="0 0 454.000000 76.000000"
   height="76.000000pt"
   width="454.000000pt"
   version="1.0">
  <metadata
     id="metadata979">
    <rdf:RDF>
      <cc:Work
         rdf:about="">
        <dc:format>image/svg+xml</dc:format>
        <dc:type
           rdf:resource="http://purl.org/dc/dcmitype/StillImage" />
      </cc:Work>
    </rdf:RDF>
  </metadata>
  <defs
     id="defs977" />
  <sodipodi:namedview
     inkscape:current-layer="svg973"
     inkscape:window-maximized="0"
     inkscape:window-y="43"
     inkscape:window-x="461"
     inkscape:cy="50.666667"
     inkscape:cx="302.66667"
     inkscape:zoom="1.8584802"
     showgrid="false"
     id="namedview975"
     inkscape:window-height="480"
     inkscape:window-width="790"
     inkscape:pageshadow="2"
     inkscape:pageopacity="0"
     guidetolerance="10"
     gridtolerance="10"
     objecttolerance="10"
     borderopacity="1"
     bordercolor="#666666"
     pagecolor="#ffffff" />
  <g
     style="fill:#7252cd;fill-opacity:1"
     id="g971"
     stroke="none"
     fill="#000000"
     transform="matrix(0.1,0,0,-0.1,0,76)">
    <path
       style="fill:#7252cd;fill-opacity:1"
       id="path969"
       d="M 739,445 C 724,430 530,389 427,379 360,373 299,364 291,360 c -7,-4 20,-10 60,-14 115,-10 310,-47 363,-68 45,-17 60,-18 210,-8 329,21 501,29 896,40 223,6 540,15 705,20 165,6 500,13 744,17 245,3 436,9 425,13 -10,4 -242,10 -514,14 -985,14 -1341,24 -2100,62 -326,16 -335,16 -341,9 z" />
  </g>
</svg>
