<?xml version="1.0" encoding="UTF-8" standalone="no"?>
<svg
   xmlns:dc="http://purl.org/dc/elements/1.1/"
   xmlns:cc="http://creativecommons.org/ns#"
   xmlns:rdf="http://www.w3.org/1999/02/22-rdf-syntax-ns#"
   xmlns:svg="http://www.w3.org/2000/svg"
   xmlns="http://www.w3.org/2000/svg"
   xmlns:sodipodi="http://sodipodi.sourceforge.net/DTD/sodipodi-0.dtd"
   xmlns:inkscape="http://www.inkscape.org/namespaces/inkscape"
   inkscape:version="1.0 (4035a4f, 2020-05-01)"
   sodipodi:docname="chic_dessert_left.svg"
   id="svg839"
   preserveAspectRatio="xMidYMid meet"
   viewBox="0 0 446.000000 86.000000"
   height="86.000000pt"
   width="446.000000pt"
   version="1.0">
  <defs
     id="defs843" />
  <sodipodi:namedview
     inkscape:current-layer="svg839"
     inkscape:window-maximized="0"
     inkscape:window-y="23"
     inkscape:window-x="0"
     inkscape:cy="57.333333"
     inkscape:cx="297.33333"
     inkscape:zoom="1.2443946"
     showgrid="false"
     id="namedview841"
     inkscape:window-height="480"
     inkscape:window-width="786"
     inkscape:pageshadow="2"
     inkscape:pageopacity="0"
     guidetolerance="10"
     gridtolerance="10"
     objecttolerance="10"
     borderopacity="1"
     bordercolor="#666666"
     pagecolor="#ffffff" />
  <metadata
     id="metadata833">
Created by potrace 1.16, written by Peter Selinger 2001-2019
<rdf:RDF>
  <cc:Work
     rdf:about="">
    <dc:format>image/svg+xml</dc:format>
    <dc:type
       rdf:resource="http://purl.org/dc/dcmitype/StillImage" />
  </cc:Work>
</rdf:RDF>
</metadata>
  <g
     style="fill:#7252cd;fill-opacity:1"
     id="g837"
     stroke="none"
     fill="#000000"
     transform="translate(0.000000,86.000000) scale(0.100000,-0.100000)">
    <path
       style="fill:#7252cd;fill-opacity:1"
       id="path835"
       d="M3520 539 c-115 -7 -266 -14 -895 -39 -126 -5 -576 -14 -1000 -20 -423 -7 -781 -15 -795 -19 -14 -4 175 -11 420 -14 245 -4 580 -11 745 -17 165 -5 482 -14 705 -20 395 -11 567 -19 896 -40 150 -10 165 -9 210 8 53 21 248 58 363 68 40 4 67 10 60 14 -8 4 -69 13 -136 19 -67 7 -164 24 -215 38 -105 30 -176 35 -358 22z" />
  </g>
</svg>
